<svg xmlns="http://www.w3.org/2000/svg" viewBox="-24.0 -24.0 1102.3 580.4" width="1102" height="580" font-family="'Comic Sans MS', 'Comic Sans', cursive">
<rect x="-24.0" y="-24.0" width="1102.3" height="580.4" fill="#ffffff"/>
<defs><marker id="arrowhead" markerWidth="10" markerHeight="8" refX="9" refY="4" orient="auto"><polygon points="0 0, 10 4, 0 8" fill="#1e1e1e"/></marker></defs>
<!-- hand-drawn render via rough.js (Excalidraw sketch engine); source: *.excalidraw -->
<path d="M341.4989792488515 63.82732131257653 C339.63093428001554 72.76906870789826, 343.99025008068236 84.72231283783913, 340.3045877836645 111.95690526738763 M341.9467880476266 65.00584698431193 C342.94162235826997 81.0904533714056, 341.5049986299947 95.10997911579906, 342.85882848389446 110.90974606983363 M341.4374668501318 109.5623227097094 C406.6122793441266 112.19260109444946, 472.8139862167836 113.1772256471762, 528.3602529667319 109.57095711007713 M342.6445480693132 109.5798538159579 C385.34084387481215 111.90919214478463, 430.1465989851207 110.52650988093346, 526.8564530838281 110.84680946581065 M526.4081771992147 111.32158329263329 C527.8202198182121 125.69299813695251, 528.4778281603828 144.03142729401588, 529.0102258585393 157.41241755262016 M527.923077820614 111.28947885744273 C527.0136255917027 127.52668822705745, 527.4312125262693 146.07223003990947, 528.1844689954073 154.7028773020953" fill="none" stroke="#1e1e1e" stroke-width="2" stroke-linecap="round" stroke-linejoin="round"/>
<path d="M528.2838573619724 154.478719766438 L522.1818457290531 143.97518711835144 L531.3573899433018 144.06995311528445" fill="#1e1e1e" stroke="none" stroke-width="0" stroke-linecap="round" stroke-linejoin="round"/>
<path d="M526.5266550343174 156.24290396753105 C526.1421137989638 154.11558945828466, 525.1082172588493 151.80269936369302, 522.6272359603713 144.42214811374862 M527.4304608856536 155.94440411642518 C525.6954540201983 151.75107046511343, 524.2530898430862 148.04925766119655, 522.4062998363465 144.61635509912412 M522.4145663151891 144.35060048840938 C525.6457724446618 144.7614195057973, 529.6196138432995 144.050082676135, 531.8603163442762 144.67025455020368 M522.7235615254566 144.338395315893 C525.6320345730894 144.26320604887604, 528.1793798054756 144.85016671147943, 531.3740421284363 144.4475817470625 M530.9074995151794 143.85959418354582 C530.0446088345839 149.048719285406, 529.2170184760841 153.7856796404217, 527.9045901263869 155.24066295447085 M532.0393922236165 144.35425283388582 C529.6365304105858 148.93001340728262, 528.5848848106903 152.29483010089288, 527.5964417706572 155.70757145207915" fill="none" stroke="#1e1e1e" stroke-width="1.2" stroke-linecap="round" stroke-linejoin="round"/>
<path d="M682.6849588338285 65.94786773882805 C682.8295129656159 75.32845008205622, 682.260015082296 85.31675909459591, 682.2586795393378 108.42004337273538 M682.0197238085792 65.58796392399817 C680.7372148054354 82.6022624388337, 680.7238586025946 99.49017869811505, 680.8820050535724 110.3659409912303 M679.7182161871344 110.11356916390359 C619.7094068192878 110.57640059618583, 563.2120297176764 109.64471763996713, 527.0194580260664 112.05837625227868 M680.3994390306995 110.02145089227706 C622.8331415938773 111.27255269573189, 565.3504926479608 111.8422167866037, 527.7515821455047 111.62174565512686 M528.724340743199 110.85201495848595 C525.9973842145763 126.67885809969157, 525.0841447235905 145.2320558398962, 528.6504303757101 156.52466590367257 M528.0475393770263 110.97326843459159 C527.7266581035369 125.9392219915986, 527.8885967767947 141.71967464070767, 528.0501583753154 154.7949348481372" fill="none" stroke="#1e1e1e" stroke-width="2" stroke-linecap="round" stroke-linejoin="round"/>
<path d="M527.8617555275559 156.80107065290213 L521.9814862385392 146.02222052663564 L530.9070412293077 146.0871799096465" fill="#1e1e1e" stroke="none" stroke-width="0" stroke-linecap="round" stroke-linejoin="round"/>
<path d="M527.3417318156008 155.25777682364492 C525.8081234517211 153.33443413518975, 524.5456454008905 152.07364903222086, 521.8726947746992 144.79517645101905 M526.8137167088275 155.24519245591844 C525.0105027996332 151.13527984291284, 523.9910749208439 146.42208687987502, 522.8052754100819 144.38133511447305 M522.0809933709354 144.53100841887294 C524.9520253643581 144.17435850591212, 526.4988141174242 144.275866491504, 531.4215107273311 144.04431899674236 M522.9378894764558 144.48291799541562 C525.2374213963188 144.44901210924982, 527.2328328709305 144.95492248794434, 531.6669934577122 144.70119722720236 M531.9084918596325 143.6566576038298 C529.9276571649698 147.00921092552878, 529.1801303954295 149.37418839478698, 527.7490948355572 154.8569972126107 M532.0931816313079 144.21759399848867 C530.6788319095141 147.70837816837704, 528.7826986478889 151.2359554494254, 527.5383958253094 155.74735659552312" fill="none" stroke="#1e1e1e" stroke-width="1.2" stroke-linecap="round" stroke-linejoin="round"/>
<path d="M526.2709384188056 219.26841416507958 C528.4280916512162 229.0878314562142, 527.3297800839097 237.11120535135268, 526.612771295011 264.88318147808315 M526.6926595695318 221.7700808636844 C527.5328072526008 230.7140715062618, 526.7427185751945 241.47037828043102, 527.9051816232503 265.42213591262697 M528.2606733356038 266.2343918877123 C434.51386062587636 269.4704804560314, 341.6138874269479 267.95930504556134, 104.7927617158473 265.958993985556 M527.1757669859502 266.12733172923055 C395.2723932689368 264.59426251327073, 263.5058310904956 264.7651248364595, 105.20029658995897 265.9859949017636 M105.04050428718328 265.9824466243386 C106.97454861094057 278.6647180624306, 104.49046128679811 288.4326843857765, 106.69063489288091 311.236914254725 M106.57200093343853 266.2570580117404 C105.65169061537087 279.95175575613973, 105.55798102732003 292.9671192415058, 106.3158477552235 310.4869923941791" fill="none" stroke="#1e1e1e" stroke-width="2" stroke-linecap="round" stroke-linejoin="round"/>
<path d="M105.83965369313955 311.5234215393662 L100.1811267480254 300.46925393491983 L108.85669251531363 300.50440670400855" fill="#1e1e1e" stroke="none" stroke-width="0" stroke-linecap="round" stroke-linejoin="round"/>
<path d="M104.65523030504349 311.77422797159954 C103.87413310447818 308.0812788120949, 104.28465183477235 305.97102040890803, 101.41973188086776 300.76820478828944 M105.54776167792174 311.0967699413321 C104.57634072498851 308.2474892207122, 102.97827085268128 305.67370524447387, 100.65346183789676 299.74631512982194 M101.58742042668163 300.31141634933647 C103.01827828405423 300.62729750602693, 105.37801439154893 300.101650306873, 109.38270511038601 300.45838344328104 M100.83221742745488 300.22744067493824 C104.3228082195483 300.0908181696236, 108.28628593638538 300.5156782644093, 110.3599447869882 300.5548127073422 M109.40790591224473 300.95529931595456 C109.03628378719634 302.76970256565164, 107.46882060661534 304.9626971491523, 105.99359954472754 311.9749097625913 M110.54697103899927 300.6317243090119 C109.17034426252208 303.0375320753919, 107.38051248508728 305.777080797958, 105.88034987996154 311.3871417389671" fill="none" stroke="#1e1e1e" stroke-width="1.2" stroke-linecap="round" stroke-linejoin="round"/>
<path d="M528.1569180037827 221.3889605913311 C526.7386703368164 231.64721283037215, 525.1115450855233 237.70565160810946, 529.2668630506844 265.7463195834309 M527.4655953304842 220.15219780337065 C527.2163996997662 232.22588057368992, 527.8495785477944 245.850577862747, 526.6283581929282 267.07833083402363 M528.1797148611397 266.81606207229197 C485.0760433149524 264.9302695673432, 446.052879810147 264.56597159323354, 370.23786814473567 268.23321453668177 M527.809220953472 266.5046450449154 C488.30388691583653 266.771416698854, 447.0305797412992 266.8457734991718, 368.84184026885777 266.5716180337593 M370.4566678311676 265.5128782901913 C368.2517130073048 279.65057802516964, 368.59677785000576 289.6333129316568, 369.4308394100517 310.3491626057774 M369.7964624898508 265.9408475888893 C368.27672312720495 278.36428952068087, 367.9273652778454 288.61456384230405, 369.28153713513166 310.579049940221" fill="none" stroke="#1e1e1e" stroke-width="2" stroke-linecap="round" stroke-linejoin="round"/>
<path d="M368.51755185872315 310.64577242583033 L363.0807672575116 299.316287343204 L374.7063438013196 299.32163349837066" fill="#1e1e1e" stroke="none" stroke-width="0" stroke-linecap="round" stroke-linejoin="round"/>
<path d="M368.5703070863269 310.78910082771347 C368.71772104907615 309.2017017808407, 366.99807997681353 306.2419700774359, 363.7651906951956 301.1412331255599 M368.981806647016 311.34834742674576 C366.99138950442347 307.63169859851166, 365.816255930439 304.9973236090727, 364.1524374116321 300.46208429109123 M364.35384748242797 300.4918242798 C367.2245312037505 300.0402365061417, 368.95721466567363 300.32743412224204, 373.48389949344096 299.8324478898197 M364.146545378454 300.3719633544609 C367.0281950427778 300.13262422999736, 369.71973900184037 300.4764340408742, 373.03289611626417 300.08842818748207 M373.50889825669776 300.7523627362386 C371.1193321175822 302.93019420577446, 370.6335108178013 306.8527841953583, 368.9381042538979 311.5912440207312 M372.7499713007703 300.4950654736147 C372.5378566155301 302.7666859824066, 370.85432632228583 304.71820614649045, 368.92230393461375 311.426926882411" fill="none" stroke="#1e1e1e" stroke-width="1.2" stroke-linecap="round" stroke-linejoin="round"/>
<path d="M525.6428975887598 219.10950701758264 C526.2372490224168 229.80659420453011, 528.4813100871369 238.30009786486625, 527.5209548063576 266.6094576887786 M528.2385310914368 220.73431474305687 C527.9119921469315 235.93768964111803, 527.7684385203943 248.030777445063, 527.551534762606 266.5345257554203 M527.1604641981423 267.36730852648617 C563.5344193842262 265.54512202499, 597.6734204992653 267.6645165419349, 649.9970732040703 266.3206336788833 M526.2641119148583 266.94624212123455 C573.6679441101849 267.64185969569536, 621.6779923547059 267.4685628507361, 650.8369693305343 265.1465542230755 M649.4728313751518 265.04330995604397 C650.7408774036691 280.6364379879087, 649.5150944132134 290.83394147753717, 650.1710439272224 309.46141095682975 M648.820924046263 265.62463716603816 C648.9017556390389 283.576823285222, 650.4967495283707 302.2620084431022, 650.2472265150398 310.6711074862629" fill="none" stroke="#1e1e1e" stroke-width="2" stroke-linecap="round" stroke-linejoin="round"/>
<path d="M649.1954500243068 309.76812331229445 L643.9804077669978 301.3633207514882 L655.3559950873255 301.3388602927327" fill="#1e1e1e" stroke="none" stroke-width="0" stroke-linecap="round" stroke-linejoin="round"/>
<path d="M650.4853838676104 311.7055519756681 C649.4837307018332 308.42054645774584, 647.5355081188545 306.5129197459637, 646.0122278013641 299.61268317098956 M649.4650624701899 311.59992491215945 C648.3572274297788 307.8946971222314, 646.6542410081968 304.2489419736715, 645.6514129853674 300.2270643064401 M645.1202745381743 300.6722322102636 C647.9907841234467 299.4531755062565, 650.5364149397984 300.553217937611, 654.1450938764959 300.6465123363584 M645.4608733294531 300.51648603398354 C647.7335818660073 300.31843029037117, 649.8731920672952 300.5811898173392, 654.4258474455401 300.3420436676219 M653.70831230931 300.54942615652254 C653.1039587398087 303.09068584589727, 651.7982010289871 306.84129294972365, 649.8826089630683 311.20757827887104 M653.9037607084617 300.35840663821756 C652.8293689685381 304.69583988942145, 651.3029293054047 308.05933149502306, 649.9642579892659 311.466712025855" fill="none" stroke="#1e1e1e" stroke-width="1.2" stroke-linecap="round" stroke-linejoin="round"/>
<path d="M527.5288771737368 221.23005344383418 C525.7358277080172 232.36597557868808, 527.4510750887507 238.89454412162303, 525.775046562031 267.4725957941264 M526.8114668523893 221.31643168274312 C526.4075845940971 237.44949870854614, 527.6872984929943 252.41097702737898, 526.2747113322839 265.990720676817 M526.6064299930093 267.16344515703275 C657.7814192519296 266.7463568348359, 789.0963285727689 266.86021015725674, 930.1588141313468 265.1954101843743 M527.0424692133416 265.63256896973456 C657.5457823797523 266.43821660139133, 788.4866012721455 266.2022260653143, 930.6498107366436 266.0438637597372 M932.7889949191361 264.5737416218966 C929.9180418000333 281.62229795064775, 931.5214109764211 296.43457002341745, 930.8112484443932 312.9736593078822 M929.9453856026753 265.308426743187 C930.614788150873 281.9893570497632, 931.9541337788961 297.90945304390044, 931.112915894948 310.7631650323048" fill="none" stroke="#1e1e1e" stroke-width="2" stroke-linecap="round" stroke-linejoin="round"/>
<path d="M929.7733481898904 312.0904741987586 L924.780048276484 300.2103541597724 L935.9056463733315 300.15608708709476" fill="#1e1e1e" stroke="none" stroke-width="0" stroke-linecap="round" stroke-linejoin="round"/>
<path d="M930.398882357053 310.72042483178194 C930.1497403545903 309.5409694264917, 929.8745145527365 306.7838694144916, 926.257686615692 299.98571150825995 M930.7991074392841 310.90071325165275 C929.4470653551342 307.2789065000308, 927.2162260859545 302.62177119234997, 926.0995994131823 299.992044321789 M925.7867015939205 300.85264014072715 C930.097037043143 300.45011450637134, 932.0156152139231 300.92300175298004, 934.7062882595509 300.0205767828971 M925.9552012804522 299.94100871350616 C930.1389686892368 300.36023635074497, 933.5266451327502 299.8219455938041, 934.998798774816 299.8756591477617 M935.7093046537632 300.34648957680656 C933.0870070701945 303.25117748602, 932.8628912401732 306.8298017040889, 930.7271136722386 310.8239125370109 M934.9575501161531 300.2217478028204 C933.920881321546 303.4742046505159, 932.5007431426033 307.0004568435555, 930.9062120439181 311.50649716929894" fill="none" stroke="#1e1e1e" stroke-width="1.2" stroke-linecap="round" stroke-linejoin="round"/>
<path d="M103.41485675871371 378.95059987008574 C103.63440639361738 386.12535695284606, 104.8208400903642 395.08899037837983, 106.82913831770419 423.93573389947414 M105.9844026133418 377.4985486224294 C105.50317704126238 394.5613077759743, 106.00615846559404 412.391176609695, 105.5978879019618 421.0469155982137 M104.49737039218863 420.6696929535364 C258.1137095617046 420.05990844578855, 408.51142625485016 419.15085459697457, 528.2163767512202 422.169025157368 M105.79839222794634 421.4972525422483 C215.4156361726115 419.7727091017545, 325.5393985323544 419.41794031257314, 527.532813861802 422.0634094751301 M527.1051584631205 419.7041732877493 C528.8952061963976 438.20815791338686, 528.9277275396288 453.2351985692978, 526.8514529615641 467.6859076589346 M526.4698471590877 422.79221632033585 C526.5398206627071 436.0018908143044, 527.6235180294216 449.15689764469863, 527.3786052748561 466.45522257834676" fill="none" stroke="#1e1e1e" stroke-width="2" stroke-linecap="round" stroke-linejoin="round"/>
<path d="M525.751246355474 466.81282508522276 L524.1796887859703 454.6573875680566 L531.8552976593376 454.57331388145684" fill="#1e1e1e" stroke="none" stroke-width="0" stroke-linecap="round" stroke-linejoin="round"/>
<path d="M527.6139591383366 467.2368759797366 C526.2157500073478 464.35981410339684, 525.7119426947778 462.6548190830195, 521.90314543002 455.9587398455304 M527.5331524083784 466.7522907370664 C526.0621141345694 464.46311587783026, 525.1542111637124 461.94538955694884, 522.8985749869178 455.35702433713794 M523.293128649667 455.19304807119073 C526.1632899628394 455.4630535064861, 528.8948154880479 455.3087855683491, 532.107482642606 456.43464122943584 M522.5695292314515 455.6855313930288 C525.4243555124663 456.1460424111188, 528.2600981982052 455.5267013702691, 531.6917501040921 455.72927462790165 M531.2087187063755 455.7435529970906 C530.1956336924212 459.0116691261429, 529.1515814513591 464.319888750295, 526.971618381409 466.04024679515084 M531.4113395238447 455.6850889674232 C530.4123936745541 458.8033585575307, 529.0985569798019 461.54158219208813, 527.2481660985703 467.1462823127429" fill="none" stroke="#1e1e1e" stroke-width="1.2" stroke-linecap="round" stroke-linejoin="round"/>
<path d="M368.40083634369074 355.87114629633726 C370.6861671164025 365.57006829518826, 366.9437871291627 379.05409657150506, 368.1832300733775 409.99887200482186 M367.65733837429434 355.0806655621156 C368.42068002844286 368.70791981980204, 370.34692897820906 382.84098214481025, 369.62106447163967 412.3031105196103 M370.00271220915016 409.8210478890687 C430.55182592635975 411.55869943391565, 491.9195992352441 412.32917142402414, 527.7746883820743 410.1828911054879 M369.728784799017 411.271033350192 C432.2937403841876 413.2017108853008, 493.787479576841 412.2854531045105, 526.5223565155641 410.47136279102415 M525.0213220071048 413.23460495360194 C527.1779087002362 432.81530601043255, 525.6395822103109 452.07840338379145, 526.4916574787349 466.798156009987 M526.5943087155 412.0760058974847 C528.26119600059 424.45638294503095, 526.8892451059958 439.68825897786763, 527.2442946547643 466.54728012438864" fill="none" stroke="#1e1e1e" stroke-width="2" stroke-linecap="round" stroke-linejoin="round"/>
<path d="M528.5291445210577 465.9351759716869 L523.9793292954564 456.70442097634077 L531.4049489453436 456.59054067581894" fill="#1e1e1e" stroke="none" stroke-width="0" stroke-linecap="round" stroke-linejoin="round"/>
<path d="M526.5274576277793 466.2517488358505 C525.8817596601049 465.40823707214275, 525.149370836819 462.8537687515475, 523.0501825361886 456.33176818280083 M526.9164082315524 467.0038682224801 C526.3279520599247 463.7753252556297, 524.8921962414702 461.19700792154765, 522.3467614147328 456.0727934984072 M522.9595557054133 455.3734560016543 C524.0295428825356 456.31599250660094, 527.2140157621727 455.53456938371806, 531.6686770256609 455.8087056759745 M522.7838571824507 455.83005407255143 C525.0297423356958 455.4678484714926, 527.3135512636603 455.487457146734, 531.9847014333681 455.9828901080415 M532.2097110508286 455.54061641737457 C530.0786820228072 458.8737390581064, 529.1146933707043 459.90839750466034, 526.8161230905794 467.55815934513146 M531.4651289315361 455.54843013202606 C530.6799060275622 458.4605124645455, 529.4723708170004 460.41070754062065, 527.1901201532226 467.1860674561869" fill="none" stroke="#1e1e1e" stroke-width="1.2" stroke-linecap="round" stroke-linejoin="round"/>
<path d="M651.3868159286677 357.99169272258877 C651.3314388201991 368.12954317756, 651.4602451489725 379.64872984468934, 651.9373218290507 410.86201011016965 M649.5302741352468 355.66278250180187 C650.1535944149067 370.66384823769334, 649.1031108901074 385.90942042805256, 649.4442410413176 411.759305441007 M650.0834615461528 410.37229434326287 C623.1894442456215 411.30699390892113, 595.1986244243384 410.16115839008415, 526.4338934414089 412.6703102476895 M649.2836757604032 411.71263042651117 C607.8462518265843 411.28487394744366, 567.7118006863445 412.3209625213763, 527.4174855772407 411.2462989803403 M527.3374855510891 412.7650366194546 C528.364208852872 423.04715348429977, 525.2550345297901 436.1710069519281, 526.1318619959056 465.9104043610394 M526.7187702719123 411.75979547463356 C527.7211369830565 422.3678984352946, 526.0935378271536 434.333667030111, 527.1099840346724 466.63933767043056" fill="none" stroke="#1e1e1e" stroke-width="2" stroke-linecap="round" stroke-linejoin="round"/>
<path d="M528.1070426866413 468.257526858151 L523.7789698049427 455.55145438462495 L530.9546002313496 455.407767470181" fill="#1e1e1e" stroke="none" stroke-width="0" stroke-linecap="round" stroke-linejoin="round"/>
<path d="M527.3425344090628 467.16819998380515 C525.5477693128621 464.6270817490479, 524.5867989788601 463.1247184200753, 522.2956413505163 456.7047965200712 M527.2504532006466 467.2554457078937 C525.6430008393596 463.1595346334291, 524.630181319228 460.5206262861465, 522.7457369884681 455.8377735137561 M522.6259827611595 455.55386393211785 C525.1357958022319 455.72893150671575, 527.6932160362974 455.7603531990871, 531.2298714087159 455.1827701225132 M522.9981851334497 455.9745767520741 C524.6351291589252 455.5096545318663, 526.3670043291153 455.4482129231989, 531.557652762644 455.5165055881813 M531.3091251034409 455.3376798376586 C530.9633086450337 459.03423069822924, 529.1793835818902 461.79848455086636, 526.6606277997498 467.1744936032713 M531.5189183392275 455.4117712966289 C529.8714183805702 460.3896663715603, 527.870184654199 463.7518328891532, 527.1320742078748 467.22585259963085" fill="none" stroke="#1e1e1e" stroke-width="1.2" stroke-linecap="round" stroke-linejoin="round"/>
<path d="M929.8727955136447 355.7122391488403 C930.4141505239955 366.28901805993166, 930.0141431687824 380.2433631178737, 931.191413584724 411.7251482155174 M931.3032098961994 356.2448994414881 C931.7865088013706 372.61977665558453, 929.9592928020057 391.17785871129485, 931.3674176109954 411.21550036240365 M930.387506673228 411.132890529326 C823.5331273871708 410.6380839574433, 717.4567313099357 411.38810466389475, 526.0188425342086 411.0399344124742 M930.8776823776573 411.8228301352425 C821.2744022047309 408.92382526341055, 712.4992390088406 409.36583254405514, 526.5903970651269 411.7482728352089 M525.2536490950733 412.29546828530727 C526.6130690055077 424.35900095816703, 526.3330468492692 438.0236105200648, 525.7720665130764 465.0226527120918 M526.8432318283245 411.4435850517824 C527.1810779655228 431.35941392555833, 527.4978305483113 451.1390750823542, 526.9756734145806 466.73139521647244" fill="none" stroke="#1e1e1e" stroke-width="2" stroke-linecap="round" stroke-linejoin="round"/>
<path d="M527.6849408522248 467.3798777446151 L523.5786103144288 454.3984877929092 L530.5042515173554 454.22499426454306" fill="#1e1e1e" stroke="none" stroke-width="0" stroke-linecap="round" stroke-linejoin="round"/>
<path d="M526.2560328985054 466.183072839919 C527.29135725746 463.845926425953, 526.101805412742 461.4940897967624, 523.442678456685 455.1762465655009 M527.5844981697409 466.556234047387 C525.732838764715 463.4225331571488, 524.1921663969857 458.82145550482494, 523.1447125622034 455.602753529105 M522.2924098169059 455.7342718625814 C524.8020487219281 455.2858705068305, 528.1724163104221 456.1301370144561, 532.2310657917709 455.9968345690519 M522.4925130844489 456.1190994315967 C526.0405159821547 455.6954605922401, 529.0204573945701 455.5529686996639, 531.85060409192 455.7701210683212 M532.310117447894 455.1347432579426 C529.7703569754196 459.19472233835205, 529.0680737930762 461.78699330523165, 526.5051325089202 466.7908278614112 M531.5727077469189 456.22590160715214 C529.9629307335781 459.16803113265473, 529.0187876373179 462.6929582376857, 527.074028262527 467.2656377430748" fill="none" stroke="#1e1e1e" stroke-width="1.2" stroke-linecap="round" stroke-linejoin="round"/>
<path d="M471.52562760487194 -1.2298852242529392 L473.0718075452914 2.1352729402859785 L476.5282656125278 1.2410508342533382 L476.16733374964394 6.594650787247179 L478.4838607706129 6.243258257955313 L477.11936976090067 59.09772843942046 L476.2405355251948 59.44049331979656 L477.4141845874042 61.94959559212634 L471.97881774293086 63.006595715097596 L469.270452658087 64.62025851830839 L211.79893726482987 67.20071060284971 L210.3400427000055 64.58791778903407 L206.91142939557128 61.37668511639544 L205.66474001783925 62.138179395960805 L204.86191286221148 58.69577180966734 L204.1010244525969 9.251351305097343 L205.08781209368308 3.5274175347218515 L206.91067387093597 1.7930469461231504 L208.41914609832858 0.005985721238433661 L212.5480607189238 0.538963171094656" fill="#eef3ff" stroke="none" stroke-width="0" stroke-linecap="round" stroke-linejoin="round"/>
<path d="M470.9428364580856 0.2730448468601762 C471.3502064545085 0.3986541492445096, 471.82577755726174 -0.003684461023044372, 473.65967746671953 0.7859923355709362 M470.66236596850587 0.12320729943396992 C471.8633885230429 0.3053839111810251, 472.9121553017038 0.46685475821863137, 473.75578155330675 0.5004623132262769 M473.6000050301276 0.6201053998789557 C474.94109175700453 1.3888575666738598, 475.55397848042935 1.8234156757882016, 476.59872659029406 2.6180324067681293 M473.9796752484936 0.45936362970961353 C474.4184686214536 0.9317175336723339, 475.09198392804626 1.3721085041488377, 476.4282122781986 2.2233929157112757 M476.5119482205333 2.406595500725345 C477.2215748045185 2.8852135995041865, 477.43261577588845 4.068820887153775, 477.92470385906773 5.196994742845589 M476.42224565967626 2.3025305505053364 C477.0802065390364 3.243607289128641, 477.6260563405127 3.9525578532305357, 478.1376071835043 4.942026488236116 M478.1136058324798 4.975215573003344 C478.5372496233205 5.37549871066143, 478.6871643881924 6.204932252745946, 478.96650445122987 8.208172834642495 M478.05253324932437 5.067464257583072 C478.35079845372474 5.79475844436626, 478.6232892045302 6.633916037110758, 478.78178820237315 7.928486083508426 M478.0898441277444 8.465890351682901 C476.91700523330564 28.867760501056907, 480.91671009494655 48.56879217997193, 477.2187682829797 56.56378771439194 M478.7941480714827 9.021558545157314 C478.3061407617169 19.67244256667793, 478.29055938039596 31.38164987616241, 477.8448038298636 56.925671349093314 M478.6450143152092 57.547249237172124 C478.9502094895418 58.313283438396645, 478.36728507837887 59.23218710492247, 478.5184326474157 60.8790331307944 M478.65504596780664 57.69583033037611 C478.5232906500076 58.794064238520335, 478.4060935440887 59.93864898940218, 478.3190893687498 60.515240548011626 M478.11454486614815 60.796504441238476 C477.76080556542775 61.2988284458574, 477.5074910742554 62.10243163080659, 476.7355545872024 63.50289529491419 M478.2252235101214 60.68419784326907 C477.4645926718274 61.65351836754308, 476.7558234526995 62.493748056701946, 476.55488410672905 63.176456552508625 M476.548454258149 63.50988620014082 C475.7488609084422 63.87577651190442, 474.9878149327432 64.36481131490713, 473.9041282397331 64.67764649333621 M476.308934958864 63.116453731099334 C475.5867455055502 63.77890500611635, 474.9185395918882 64.53748495759581, 473.78927462673266 64.82734388557239 M473.60158264107304 65.11663195707214 C473.1086229538989 64.81363781771796, 472.52734745702213 65.170577249585, 470.5245007487121 65.83028337750432 M474.02338055725727 65.13019048761856 C472.8041338002884 65.24607566545787, 472.08626792717814 65.24404110006557, 470.68804428449863 65.68411417209737 M470.26501013900514 66.59967144848099 C378.75167424260843 66.89750609960166, 290.1389544777614 68.10438043573058, 212.9023076592289 65.63259223109722 M470.56351664699207 66.44305296479057 C382.01830884541306 63.308912588307024, 293.53510345631724 64.7710542856531, 212.3977803847157 65.78432379534685 M213.09101059658587 65.56053034737536 C212.11907023237927 65.44404124210213, 210.78648238507463 64.97308505238693, 209.5800687373998 64.88254126425785 M212.73846519003268 65.6948578909581 C211.55826844786407 65.2566007161524, 210.46251966806105 65.25616622569311, 209.91888431004116 65.03717297874641 M209.6007738945143 64.69837032641364 C209.19294557551584 64.45970352966174, 208.1441532167226 63.74525453689297, 207.43558275306694 63.243561732983835 M209.79372160090165 65.0836334608975 C208.85711283988448 64.30904386828506, 208.203060427119 63.749337443796925, 207.18148600513794 63.192845413274284 M207.36388768486285 63.50930927698415 C206.5865227657117 62.36130598844258, 206.38283694486378 61.6993431024928, 205.48221237409763 60.68814783263097 M207.09468169219855 63.3678640352846 C206.9665719265594 62.65642745440197, 206.29723918675236 61.978246684135954, 205.4250299393248 60.76000150610852 M205.66187232453996 60.74254911542958 C205.21394299476006 59.53644444647856, 205.08970099124502 58.6095344098712, 204.81383273812466 57.38969514106536 M205.50685253682548 60.68237482704484 C205.3453181422003 59.48124989035695, 205.05145095720732 58.585610413982245, 204.84235402382203 57.583364892706925 M206.81832785233857 55.60376023426652 C204.78611080202938 44.125465209633106, 203.83551811728358 28.231341480165717, 205.0416718684137 9.042760197073223 M205.06689084358513 57.98791069798171 C203.85965653481307 46.97896046571433, 204.69782500090423 37.26981301359832, 204.69363989420236 7.091333041712644 M205.07892599828497 8.022984721025512 C204.8432482703706 7.254844742791047, 205.49691812936342 5.79577134444209, 205.23884293152454 5.212254411131843 M204.81732655341668 7.975258235442856 C205.0711690652799 7.2659924058985785, 205.3590332838871 6.401506508253388, 205.35079365081506 4.886968147552788 M205.65405444142263 5.212583858243927 C205.93904214674157 4.469673096239022, 206.44770109381713 3.7554760746598728, 207.3482766896753 2.210752867459784 M205.38861661731593 5.062186813350331 C205.82161084067297 4.26913760534314, 206.17024703404957 3.8048637693295784, 207.08851225584425 2.247874094664855 M207.4643227157805 2.591225523432814 C208.59769301133295 1.95072081747272, 209.4512817234848 1.2025376446085252, 210.00338366166466 0.325134349823143 M207.14004822395933 2.304876884402629 C207.90271671222126 1.9816802871517525, 208.86480730553833 1.1791329564519286, 209.75088077823878 0.5179440694638534 M209.52900044977952 0.7317527287862942 C210.65613124081813 0.8108882111411506, 211.38978028697386 0.22858801334591167, 212.6428433574427 0.06114526141733011 M209.7722801498086 0.7412732660886634 C210.72727764725542 0.3738616507005118, 211.37614948168908 0.41407236497290023, 213.0623612823763 0.14183110252711895 M212.71504330082126 1.0366368388259246 C279.70248779674677 -0.21112162863975414, 343.8885663636027 -1.2688768801522556, 469.4385691665463 -1.4779474162945885 M213.6233057696558 -0.17543023027363833 C283.4836270738669 1.6622985783752209, 353.2317029642615 1.5423199598432715, 471.42920413120135 -0.40004596544517046" fill="none" stroke="#4a5fc1" stroke-width="2" stroke-linecap="round" stroke-linejoin="round"/>
<path d="M840.6441745015792 0.9473657322116197 L845.1527270460111 -0.5995078163775529 L846.7263607072198 0.6893667099512193 L848.6229695620569 6.590951772631912 L851.1287262770347 9.746118743438274 L850.6978645089082 59.61770950974896 L847.6467813524041 60.53281853530385 L848.8446623402202 65.14120176998162 L844.4006289952976 64.057558710556 L843.3052064302377 64.41959400596096 L522.8222617420367 65.79654985787346 L517.5967219513299 65.65205846844192 L515.9461650926133 64.0035170402863 L515.3685381534885 58.87798532876947 L513.9340954693965 58.72240324141457 L512.3268663230351 8.964279232639822 L511.5318024966311 3.288158243002206 L515.5254032719395 3.6959627894199465 L517.9698178779723 1.383460904416173 L522.3526278915815 -2.099045469146222" fill="#eef3ff" stroke="none" stroke-width="0" stroke-linecap="round" stroke-linejoin="round"/>
<path d="M841.3555695108354 0.10325055656578337 C842.2264419545596 0.2305929429608008, 842.6626360009559 0.009612557933862037, 844.4573781925517 0.5225349165702113 M841.3199412051703 0.002692756313204543 C842.440843990403 0.3024704583212007, 843.8248725819473 0.38358823770279016, 844.4245480823863 0.45995479930131006 M844.7795855168064 0.6611672146687544 C845.4466904082096 1.3098959481758774, 846.2183284322003 1.9598140915844968, 847.0988520729965 2.147814368980568 M844.4645815718071 0.4922577684774314 C845.0617879512403 1.0643328542884742, 845.7527970654406 1.4410111615076797, 846.9310137050626 2.44499303284171 M846.9567252599899 2.0438660690497947 C847.6737560369279 3.2221652129241334, 848.1227167415088 3.701874576591223, 848.4979030418186 4.803115240834234 M847.03151668054 2.442852212678946 C847.4331885783189 3.073348573511902, 848.0820992934609 3.6752965124344557, 848.7276025154207 4.785007895239439 M848.9232679460498 5.2568415092833005 C849.0619177598728 5.7137545969720716, 848.980792223489 7.0889137990879165, 849.3357345051243 7.682773558176938 M848.8521269989227 5.067173056299824 C848.9555860382297 5.738865859043699, 848.9611901295218 6.098939470525292, 849.2901390763674 7.926524501950217 M848.4914261621423 6.632272771280259 C847.2256536102499 18.81082517189905, 850.4886893457378 31.227698781471698, 850.1680913520046 56.537652612011875 M849.9803493054118 8.041321533033624 C849.3045112680646 25.563296254733576, 849.4988000418994 43.73241362513043, 850.1430938617792 57.38380194366909 M849.6179060054629 57.27641446116754 C849.351960104429 59.006051628586775, 848.8468586950121 60.1386949132477, 848.8234531192469 60.76886433322275 M849.3180227334817 57.74988857437298 C849.3978918573326 58.29936805597431, 849.0985633274111 59.11114450313039, 848.7221398011424 60.65741337710257 M848.8204267536862 60.86044883311365 C848.2274299496437 61.12009373877056, 847.7519129552925 62.159376049996546, 847.1821950130478 63.283713211793085 M848.8050239200601 60.6912154244092 C848.3856184179893 61.419713152148134, 847.8742458605095 62.170145062454196, 847.0368910160983 63.20173358452857 M847.0754734498324 63.32900007767843 C846.1969608545782 63.86952240556089, 845.7746545689828 64.04135272803686, 844.6492407651758 64.69415376350418 M846.9800808075768 63.21497488132963 C846.4472929303734 63.73612279423241, 845.8739508729342 64.03952335596072, 844.3354133618873 64.94478978855922 M844.628225462049 64.98384662697725 C843.3413078682706 65.10661133140793, 842.5507304950736 65.64813365606238, 841.6985017328537 65.29960582654616 M844.2983437243438 65.08082171277913 C843.3306708726137 65.0103607988387, 842.5299260141695 65.26013844488168, 841.3267146555721 65.46767959512756 M841.4322212211564 65.07023652098192 C747.6345726379227 65.66933558533948, 655.207030051521 63.91467301013742, 521.4258441704294 65.2249409740686 M841.5533991420147 65.22030075043729 C755.9272483421922 66.14891442193347, 670.7591328643915 66.40400412649745, 521.2707306250443 65.04612652147422 M520.7058195781937 65.33350647942076 C519.5054586597024 65.69927456729765, 518.5580712293529 65.3286603483783, 517.6882222395026 65.10286956445887 M520.960773910841 65.48397537399526 C519.6608944202505 65.4606450403418, 518.4956277784261 65.26067606604309, 517.8646197725016 64.9979541160326 M517.7855753458233 65.1302025004409 C517.1156856381872 64.59475306633261, 516.1929140056833 63.90967012754046, 514.9793907441772 63.35543280685019 M517.7192951892283 64.90550727894878 C516.9386949806355 64.52433032332418, 515.9876125071501 63.79096696098864, 515.1888571220013 63.365747302578136 M514.8907106300221 63.115379715187174 C514.6724950415963 62.46833592365024, 514.2190162810067 61.99662015366562, 513.4830462328534 60.925990181294196 M515.1095232333121 63.290948078348436 C514.6178337075794 62.43639132209169, 514.0297979205573 61.31820572766804, 513.4376779680779 60.66386273312641 M513.1288755059372 60.93714457598452 C513.0845717400775 59.6809494424749, 512.8422542900846 59.3855536109727, 512.5628951296566 57.40159892311537 M513.4928697754755 60.533695139414235 C513.1940046491519 59.82522247766053, 513.1488327979436 58.89009877061081, 512.7541643309742 57.718423859969995 M513.2818139177747 55.6396249028854 C513.7958377253797 38.90101075304672, 511.05232343492764 22.609769325833764, 511.1753524673171 7.0389498653821665 M513.1520316006149 57.31739328713156 C512.9184610059365 46.781535136261944, 512.206114209245 35.981311455378304, 511.77817022665397 8.055010817060248 M512.7646471521208 7.758243603069491 C513.1336832025719 6.481193237850649, 513.1151496043794 5.425710705783547, 513.3687494079871 4.69832643466094 M512.9091917558584 7.89174848657066 C512.9519371927244 6.931772290640716, 513.2053982398976 5.6195328720546245, 513.5157738562912 4.9070229280850945 M513.5798449111758 4.68773356913272 C514.2126983168266 4.158000888776875, 514.6531728795995 2.8698888395204496, 514.8695070141915 2.578370302044868 M513.3436046470462 4.928019672462079 C513.7444576534873 4.2995864759698765, 514.2333299639192 3.3812151229325536, 515.1743152622021 2.218401886863128 M515.2705715993698 2.071621333802726 C515.8689398940136 1.8102256766339588, 516.6665048978472 1.4097797761030089, 517.4322486610798 0.8608282130262409 M515.2290119612263 2.442486834850492 C515.9805158007247 1.712896001917538, 516.8307112005674 1.130888055868514, 517.7170663273333 0.7643650102045756 M517.5930281506871 0.6863444737204256 C519.0671371930066 0.5908394496183087, 519.7074405271247 0.36597137475257874, 520.9640463841963 0.20094929518198715 M517.6894812658516 0.5334341105942151 C518.5681025911988 0.46797331287446253, 519.4747995556736 0.23686971335280968, 520.6591783003955 -0.03315353239905238 M521.9465588441038 0.23656754689081935 C628.0239955640094 -0.6128203563159271, 734.2861979668435 -2.323492368747883, 840.2914058053707 0.526110507881573 M521.440583452426 0.6839923499962043 C612.7272404554902 0.46752034848496576, 704.355781792973 -0.6162632881307785, 841.6033184649561 0.597050345947067" fill="none" stroke="#4a5fc1" stroke-width="2" stroke-linecap="round" stroke-linejoin="round"/>
<path d="M671.5627213982865 154.52461668867616 L670.6336465467309 156.4657114269589 L674.5244558019118 159.9376825856491 L678.67860537447 162.18725275801663 L677.1735917834566 164.64897922892123 L677.6763592569158 211.53769058007745 L676.6530271796133 217.22514375081116 L673.6751400930361 219.73280794783687 L674.4224402476643 220.70852170601438 L670.7399602023885 219.81892949361352 L385.7455862192437 219.9923891128972 L380.9534012026543 222.31619914784977 L381.0809007896557 218.03034896417714 L376.97233628913807 215.41779126157815 L374.90627807658166 214.34903467316178 L376.65270819347353 164.2772071601823 L378.2757928995793 158.64889895128258 L380.2401326729431 156.99887863271675 L383.6204896576161 154.1609360875939 L384.05719506423924 155.0629458906129" fill="#eef3ff" stroke="none" stroke-width="0" stroke-linecap="round" stroke-linejoin="round"/>
<path d="M669.3683025635853 155.5334562662714 C670.0471739726368 155.71396438998696, 671.09949444465 155.6743422302006, 672.8550789183838 156.51458097954367 M669.5775164418347 155.48217821319244 C670.3235271161358 155.77776425747942, 670.7750205468051 155.98448796221015, 672.693314611466 156.34719902636343 M672.903662521511 156.30222902945854 C673.5522890594148 156.78733183159628, 674.4826783839715 157.6526100092992, 675.1989775556989 157.93309981316722 M672.5494878951207 156.12515190724525 C673.6328590220141 156.79694817490463, 674.3413619438223 157.43766555985363, 675.3615668729136 157.93884140898504 M675.0015022994464 157.93664011934845 C675.7695397674189 158.50361334436988, 676.4564202052107 159.59043174800286, 676.6711022245694 160.66473922079706 M675.2407877014037 157.85542213386546 C675.7575248566701 158.4739556001171, 676.1817447444907 159.29665265484743, 676.9175978473371 160.55574104322983 M676.6774265776456 160.48296396358904 C677.1865858964252 161.66224107411318, 677.5299235407595 162.92762245428617, 677.3049645590187 163.41287776368557 M676.9239690075339 160.66688185501656 C677.2821663707167 161.56751502451817, 677.4704282914641 162.71630162849522, 677.7262416913487 163.52456292039201 M676.4930081965402 164.59865519087762 C675.9675819871942 174.27388984274117, 678.4939485965291 185.12660538297146, 676.5174144210295 212.1115175096318 M676.6665505393408 162.66108452090992 C677.0696017744123 177.13414994278924, 677.4737607034027 191.84317737409845, 677.9413838936947 213.44193253824486 M677.5352942137424 213.26108316713714 C677.4755034672983 214.03102284501858, 677.1700178076092 215.42061573800467, 676.728473591078 216.25869553565113 M677.5809994991567 213.07619507738275 C677.4743812289986 214.01696536521246, 677.1988802680792 214.7804752594398, 677.0529419745219 216.39958620619353 M677.1263086412242 216.52439322498884 C676.2940543338597 217.22599677143597, 676.2518383183038 217.84545472696453, 675.2288354388933 218.66453112867197 M676.9848243299987 216.29823300554935 C676.2756585191263 217.27585103708947, 675.614846221175 218.12781078566996, 675.1188979254675 218.8270106165485 M675.2024926415158 218.748113955216 C674.9296985404665 219.41966580113575, 674.1906284630005 219.92979512505917, 672.3388498086443 220.31066103367212 M675.2512266562895 218.9134960315599 C674.3887629970823 219.35602774156254, 673.3912074377515 220.20658879763354, 672.8093038380291 220.66223569154607 M672.5993648010509 220.4510612968824 C671.8192656737862 220.9995848450979, 670.8193864242688 221.07018658056558, 669.8169992350212 221.02443175756218 M672.5010586324173 220.63145293793968 C671.4469773541085 220.70239767320663, 670.5633535103306 220.87623578969777, 669.5653850266456 221.17899675914484 M670.1750791181275 222.29237698675055 C604.4925651679191 220.6837549304835, 535.8592081848867 222.10779278646814, 386.1563686040834 220.3550694224716 M670.1562768203835 221.1728848481113 C558.7887750461141 220.87032028348716, 446.7638866410937 220.04350691388873, 384.7029076019648 221.41676639440513 M385.07613204177574 221.36198609344032 C383.6473505689999 220.8475717572091, 383.08516355560533 220.5772995090856, 381.89637574160525 220.2676943826857 M384.9553308906623 221.2008445980195 C383.863520392637 220.98837027685397, 382.6287358887909 220.91661855970295, 381.5826034939749 220.5587352533188 M381.4148733151581 220.50653119249395 C381.13842570085865 220.32980260300346, 380.3416747946442 219.67408571818794, 379.278702217262 219.0673038807165 M381.744868777555 220.65513283798714 C380.7633911226218 220.0118650373762, 379.84303032940323 219.10484473719325, 379.29622823886496 218.81089745089488 M379.17303705715574 218.97695363536437 C378.8148648193996 218.2045001166359, 378.1115931190682 217.92303146261648, 377.58388009160944 216.10832904798323 M379.2243647744259 218.81403212141225 C378.71593189071916 218.00768080690864, 378.2282777176145 217.29631948742878, 377.55032599683113 216.1677239601443 M377.35138216930886 216.07623655456527 C377.05520048539546 215.42545443847123, 377.35031107089867 215.1060693301, 377.06746100316275 213.01350270516537 M377.2511352731386 216.31276719277074 C377.297217495799 215.1466709823495, 377.0511964894061 213.88752129382772, 376.7659746381264 213.12573108624596 M375.84529998321085 211.2754895715043 C378.9055646487299 199.1965562964603, 378.56912875257166 188.22819717150182, 377.6090330662206 164.8351395336911 M377.3371723576449 212.2468758762814 C377.24398547705994 202.18410980680957, 377.08112341758596 192.3928098971583, 377.06270055910574 164.61868859240784 M376.5503683059567 163.74900596708764 C376.798254558127 162.5753387066686, 377.2967317187158 161.8802370506933, 377.59865588444984 160.43990194016425 M376.77330521731307 163.73599047868555 C376.8109125721872 162.79961507633652, 377.2359294409314 161.97966736958077, 377.45300232078046 160.5270777086174 M377.60563538092924 160.41838676199572 C377.58401460281806 159.96540603942907, 378.2649718611429 159.27795980258387, 379.1462408206822 157.89048425465577 M377.3985926767767 160.39385253157383 C377.8109069643834 159.63141786338755, 378.4400153918709 158.9144524753007, 379.03236652757306 157.7889296790614 M379.1768204829593 157.80752062614684 C379.75926413480875 157.6220001137314, 381.01988278843834 156.56695160143994, 381.6166171424691 156.34101859425513 M379.09022395750645 157.85234504431125 C380.15831488922834 157.37186345767043, 381.22436683658356 156.6826431552851, 381.78325187642787 156.2830342099582 M381.7570558515947 156.24093621865455 C382.96584965341106 156.0925834360774, 383.5560172656815 155.6914367501489, 384.7297459289759 155.28524984697245 M381.7066823818944 156.25334669608685 C382.5089275351422 156.21351762835826, 383.34569788867117 156.03885145602965, 384.683747059402 155.71961357366186 M384.2772777434044 155.13473960055694 C447.9172595520692 155.28097587884264, 508.2308712383426 155.7525160607759, 668.4789828491587 154.95127943246746 M385.5076005385375 155.6572911014011 C470.2360722744917 156.94931580491667, 555.8126690129865 157.89622556536372, 669.44726054193 155.6806434649095" fill="none" stroke="#4a5fc1" stroke-width="2" stroke-linecap="round" stroke-linejoin="round"/>
<path d="M203.68126829499377 312.3018676451407 L205.7145660474507 313.5309306702954 L207.72255089660368 314.985998461347 L209.93424118688282 317.78355374340134 L212.81845728987827 319.5518397144042 L210.05485400492324 367.6576716504059 L211.05927300682242 373.91746896631844 L208.105617845852 374.32441412569216 L205.64425150003115 377.35948470147275 L203.57471397453918 375.2182649812661 L7.868910696450621 378.38822836792093 L3.510080453978687 374.7803398272576 L1.21563648669785 376.257180888068 L1.9761344247874892 371.9575971943868 L-0.7215393162332475 369.975666104909 L0.17855006391182543 319.5901350877248 L0.019783302527394575 318.20963965956287 L4.15486207394665 314.5017944760135 L4.271161437259818 311.13841127077166 L9.1617622368969 312.224937250372" fill="#eef3ff" stroke="none" stroke-width="0" stroke-linecap="round" stroke-linejoin="round"/>
<path d="M203.4365390983092 310.963661975977 C203.92340947268787 311.1459031837033, 204.28084940636987 311.2876392491575, 205.9972761622418 311.85112356054293 M203.23509167849915 311.28941541105877 C203.90098258349585 311.37485080461965, 204.68773782704866 311.5012214416943, 206.3620811405457 311.90669151243844 M206.4277395262157 311.94329084424834 C207.02875345284178 312.3083702130983, 208.11789407796434 312.73350494312126, 208.69910303840106 313.7183852573538 M206.3621459594213 311.7580460460131 C206.78623525146452 312.2263295914828, 207.32090636375312 312.4564979110549, 208.86436829977737 313.4326897851284 M209.10178282087693 313.82941416964707 C209.22172099982802 314.44056495778983, 210.1465211708309 315.4789889194145, 210.89980488929427 315.8708597187857 M208.85005872226725 313.5957437960391 C209.15410939403412 314.23144862548753, 209.68139019552038 314.6193913140513, 210.50759317925332 315.9987224502332 M210.48708869121552 316.364589899869 C210.58946128499545 316.98820346863965, 211.23546936206617 317.53151353508565, 211.32969809488728 319.1429819691942 M210.72356275713196 316.2665906537333 C210.88695395522154 317.12185303002605, 211.1360809574427 318.1193073937273, 211.23459256534292 319.12260133883376 M209.89459023093804 318.365037610475 C210.10951036413834 333.9369545135833, 211.8992078473203 343.2255119844712, 212.46673749005421 367.6853824072517 M210.85275177326983 319.38084750878625 C211.06797228075988 330.80500363084485, 211.68200136490591 339.95394112306644, 211.13967392561025 369.5000631328206 M211.5081859039961 368.5902483911325 C211.0504794834773 369.70126695259404, 210.94460957351598 370.6923059719311, 210.68899754488325 371.7485267380794 M211.24397626483176 368.73025332137956 C210.95087060066442 369.72433208362, 210.69919720874745 370.7673271659058, 210.4559924069143 371.8140072942973 M210.83219052876206 372.188337616864 C209.76067871807547 372.6763963221271, 209.49626019934072 373.5315334039325, 208.67547586473856 374.700852527525 M210.56462473993713 371.9052505866894 C210.19668426528804 372.6420458216945, 209.7332686289849 373.4042077914222, 208.92865657582365 374.4522876485684 M208.72951183319915 374.1672278327536 C207.8878553862659 375.36024809691173, 206.96844764078938 375.900009342428, 206.08396233408715 375.92716830384006 M208.92237250500222 374.6120171817902 C208.2201761641274 374.9132455296786, 207.3174844610195 375.30862719599844, 206.35544257318386 376.05192985354574 M205.9705041400528 375.91827596678746 C205.6642440799421 376.06382947552186, 205.06735644588866 376.19722135579497, 203.33549673718852 376.74925768857815 M206.10377354049098 376.18208416310017 C204.97351442643372 376.3944345475745, 204.00701159732193 376.49233313451384, 203.20405539771895 376.8903139231621 M204.67000140463932 376.2378033452667 C129.0519298559986 374.94042269511, 56.2942395291291 377.0050594232775, 6.480443932767957 375.109078642074 M202.347062869044 377.27175162392666 C141.04751096841878 375.943512010638, 79.45955693957394 375.49879905140807, 7.070557143958285 376.06389601039695 M7.990941023383578 376.7349622254857 C6.9892424782973706 376.7028050824046, 6.156752399883661 376.5328748050769, 4.649025761733816 376.0880226828867 M8.149887870483566 376.9177138220437 C6.9383946240364205 376.4646628600562, 5.961843999155876 376.5211284000529, 4.828338956435313 376.11951639060493 M4.899674766467119 375.88285988454703 C4.3611657635300975 376.06485213967426, 3.690435583605014 375.4385013088354, 2.122510208372351 374.77917495458286 M4.970442365881654 376.07700665603835 C4.336298880500189 375.88983865162936, 3.965737125663012 375.4837495567057, 2.2758476147413553 374.5837993401987 M2.655363484289282 374.18302407356737 C1.8540006931647828 373.39245269372924, 1.2096031329462293 372.7821537975606, 0.8847139503653744 371.94617139664643 M2.2114545745524983 374.3371161644761 C2.0140300738588857 373.8775877749346, 1.6267575146715954 373.2452989894114, 0.5352222845971666 371.99933692814926 M0.7738888326803713 371.8708320151202 C0.1040364827312591 370.5474353518529, 0.15927887377450628 369.5917674748285, 0.11652339469469813 368.62540648721534 M0.5371525117886123 371.7640875051401 C0.39447134944085444 371.090643569653, 0.06939393584534356 370.1197613914433, -0.022215054721391153 368.860790053509 M1.8087860486470164 366.91135424012316 C-1.8179884279198946 353.77210183987387, 0.2526540702156724 338.2066250171698, -0.9572863348759711 318.43132920200003 M0.7223131146747619 369.2763584654312 C-0.4972100518166276 357.58668447735715, -0.1105873740731926 346.70430833893823, -0.5527691084425896 319.08236636775547 M0.19159294176675498 319.0842648491316 C0.388689490328304 318.05719068370234, 0.21496319373184072 317.1101764120347, 0.37305887893829165 316.1814774456675 M-0.16258132123233868 319.2524807298133 C0.31943244061891324 318.06539496107865, 0.38229439694186806 316.797693733382, 0.5902307852695418 316.14713248914967 M0.8314258506825276 316.14903995485867 C0.8108343707836323 315.77281119008126, 1.0767708426861706 315.0305272836731, 2.6229746271726726 313.85810168924087 M0.6535807065069744 316.18743713167265 C1.0773562752792956 315.2618667340143, 1.8467008198223438 314.41855556989077, 2.4181695339309606 313.6872092122468 M2.283069366548599 313.54341991849094 C3.0151487572417754 313.1251074709742, 3.5642402205788666 313.07329971299015, 5.0009856238584804 311.821208975484 M2.479187694773569 313.5899549947591 C2.987902361839538 313.04991557455577, 3.7507334985930196 312.60031931795373, 5.049437425522381 311.8017034097118 M5.121083552502342 311.7955279635887 C5.409058631841239 311.6457600758464, 6.604594004238197 311.7238382608294, 7.6954454737553695 311.0250538807371 M4.923883497937257 311.6455075405924 C5.987734810903178 311.5798775495452, 6.754578553486172 311.4616488044096, 7.908315818408359 311.1446289387357 M9.181546579953281 309.63496092492716 C65.83367265230044 314.49256635061755, 126.05203321790322 313.98316419176115, 201.83069207286462 312.9370492481626 M8.948987434478475 310.37244971054605 C68.90812887546606 311.4054800106757, 130.61407631811684 311.252420589196, 202.50643985834904 310.5584023665171" fill="none" stroke="#4a5fc1" stroke-width="2" stroke-linecap="round" stroke-linejoin="round"/>
<path d="M483.199815191701 310.27911860160526 L488.19548554817044 310.79614991363184 L488.32064599129563 314.43431433704484 L492.78987699929576 317.77985472878606 L491.66332279630006 318.85470019988713 L494.03334875293075 347.3776527207345 L492.8655188340316 350.0097941818258 L489.9360955986679 352.51602030354746 L488.4660627523979 353.41044769693116 L483.8094677466899 354.2176004689187 L251.99223517365752 356.1840676229447 L248.06675970530304 355.04448050666554 L247.55037218374005 353.8840128119589 L244.7799325604369 352.0974031271955 L245.65064329095185 349.20229753665626 L245.70439193435013 319.30306301526724 L243.7637737054755 317.97038036784323 L245.86959147495023 312.2047103193103 L251.12183321690355 312.5158864539494 L252.06632940955458 309.5869286101311" fill="#eef3ff" stroke="none" stroke-width="0" stroke-linecap="round" stroke-linejoin="round"/>
<path d="M484.249272151059 311.4493711676568 C484.54414149076484 311.02927463072945, 485.51770785006397 311.3523689214243, 487.19497688807394 311.58766614154223 M484.2926669151635 311.168900867938 C484.878438050856 311.3205046984499, 485.67270336630514 311.3665222678686, 487.10309592863825 311.86618399851346 M487.35181653092036 311.98435265903817 C487.9343521040469 312.22940859460033, 489.18224402973533 312.86990335891755, 489.5992285211034 313.24816721956626 M487.2470522827348 311.7909401847809 C487.8295545812512 312.35894491209893, 488.7094712421346 312.8531523094009, 489.7671697266412 313.6542899022588 M489.9465598603334 313.46668473797155 C490.72940571421145 314.12201308923557, 491.2366221364512 315.11204260885194, 491.8730040720451 316.1324836987485 M489.8593297431309 313.4083137172256 C490.2348431743037 314.0611899098708, 490.5374331484685 314.66988171424236, 491.4975885111696 316.1694555982236 M491.6967508047855 315.9907123541748 C491.56556207485767 317.33668994578085, 491.9805298506725 318.4257256722581, 492.0989281487817 319.2730861747028 M491.59540476574307 316.2662994524501 C491.89174153972647 317.06596044470353, 491.8739818824342 317.91208256812894, 492.1429434393371 319.12063975727557 M490.6961722653359 320.73142003007234 C490.96833511029416 328.01603517360985, 492.02136346732317 334.15645056433976, 491.616060559079 346.8592473048717 M492.43895300719885 318.4006104966625 C492.42564088212157 329.5380291291699, 493.24954012142325 337.98904849257315, 491.7379639575258 347.05819372739643 M492.2255741122756 348.1749170971022 C491.85223009836454 348.93853166081004, 491.82418319014914 350.14331029828213, 491.3940180167143 350.8383579405078 M492.3069530305068 347.9843115653765 C492.10367906000755 349.0419293928582, 491.87583323709293 350.3644096632023, 491.5867945802939 351.1561801233883 M491.2825689343258 350.796778526765 C491.28280658426553 351.7267958728184, 490.14068208037776 352.8176120809005, 490.1776197725581 353.68167044440395 M491.54442514987574 351.1122681678296 C490.8867243664249 352.09818370663584, 490.2738689896502 352.961873514638, 489.8106634851928 353.67756468058843 M489.65653102488255 353.84184519226545 C488.7359553324018 354.51039149248663, 488.15528727702895 354.73294825747615, 487.2290748595299 355.14367557400806 M489.993518353715 353.5827865910334 C488.9616462308362 354.4172997199143, 487.9624927668239 355.0320901395896, 487.30158130833854 355.36937575653263 M487.39714696102885 355.6409941186668 C486.2969289943139 355.5568029892119, 485.49073948394016 355.87477776227246, 484.2539942393559 356.07408361959426 M487.10648844856456 355.3327153882608 C485.900051498759 355.6864714219425, 484.85066968431335 356.0361822203171, 484.2427257687924 355.8738793461923 M482.4880839630036 357.38754550769346 C412.0423842744349 356.7113453984757, 339.06065300645486 358.621854928349, 252.66808663522656 357.63885110162 M483.9123065614552 356.8306971248016 C428.8712162559345 355.89518866497883, 372.2944774003026 356.06523271771755, 253.51310723418155 356.2901686979739 M252.9057500049914 355.70793835753113 C252.33113438759477 356.1066057542903, 251.88384472613612 356.0370174477585, 250.0571792638365 355.5083509830877 M253.34444485030482 355.9068313050809 C252.34102059642288 355.92013983755555, 251.2949521095208 355.7770708937128, 250.0740744188957 355.2802975278912 M250.3844762177761 355.5146920585743 C249.0648284680872 354.3975617922514, 248.00104165633715 354.1092440952438, 247.62182168145696 353.43554254647506 M250.1960159542083 355.4266322150768 C249.36099502248624 354.97737336568144, 249.0211549479161 354.7253790738975, 247.58321873160486 353.6289494885155 M247.48218642944863 353.64459799374464 C247.23997296904955 352.7286168867149, 246.34578246908924 351.6530616245373, 245.5300443271471 351.3840137453097 M247.52629611566618 353.787951948527 C246.965291854879 352.8575516426244, 246.33156450748956 351.7852580329436, 245.8478703133503 351.10319815516715 M245.5408920140777 351.26542747567515 C245.32609788135883 349.8919403478493, 245.2632648259241 348.91228319395583, 245.16558578622664 347.8373102692654 M245.8231697504387 351.1431595584966 C245.54315785639255 350.2966338251391, 245.46677577658158 349.61401915724144, 245.1895952524308 347.868097279785 M245.57227211408315 346.14721890874205 C244.45492140218911 335.97865734167397, 244.73264229461847 324.04707277961074, 246.67639426402746 320.62751887030896 M246.10745387170462 347.8058410545811 C245.12276624021678 341.20823460783805, 246.05887365517765 335.95375770058484, 245.93176122400908 320.0460441431031 M245.1773140956026 319.4750272131498 C245.37505359386532 317.93904266073616, 245.840130804032 316.7401157733762, 245.80296535540094 316.3230529511708 M245.22928388120937 319.16897098094114 C245.42984047339147 318.3332377467745, 245.66425825128545 317.23007648992103, 245.72745924975868 316.16718726968196 M246.05721632043583 316.2796931477217 C246.42809303895038 315.49027324039713, 247.28134860852444 314.17407430631175, 247.44420495168902 313.57021564185175 M245.90856873623733 316.0532699907844 C246.34380558617528 314.993698121432, 247.25338624777382 314.0240411812718, 247.4762207993018 313.65773700444504 M247.38931825013796 313.67931921083505 C248.10547299803687 313.29327940999013, 249.11761811116997 312.5868690402455, 250.38535410524779 311.70139935671295 M247.5403996910536 313.39981320421987 C248.3657014503431 313.1088830303087, 249.01663739362206 312.5520744173703, 249.9878712336298 311.7203726094654 M249.82960777143575 311.75011970852285 C251.12006458402976 311.42571131432356, 252.22225424438903 311.2057181402618, 253.31664850050905 311.1648579145018 M250.14108461398013 311.7654201260851 C251.12855975484658 311.725421865029, 252.15322862747072 311.3358788060994, 253.13288457741473 311.29739604479664 M252.22625672931466 312.6278746685922 C342.47043517985986 310.7477414751024, 428.2331800860132 309.35620788795484, 483.13035047389906 311.3096180620811 M254.0188156419598 311.5133464022814 C328.4317266602963 313.6865485457362, 404.8599022389805 312.36802765246875, 484.9755321819771 311.80272213712277" fill="none" stroke="#4a5fc1" stroke-width="2" stroke-linecap="round" stroke-linejoin="round"/>
<path d="M766.9183620884083 312.45636955806987 L766.4764050488902 312.2613691569683 L768.9187410859877 313.88263021274275 L771.4455128117088 317.77615571417084 L774.7081883027219 318.15756068537013 L773.8118435009383 347.89763379106296 L774.6717646612409 351.10211939733307 L771.766573351484 355.70762648140277 L767.0878740047647 354.46141069238956 L764.0442215188407 354.0169359565713 L536.1155596508645 354.7799068779685 L532.6234389566275 356.1086211860734 L529.6851078807822 352.31084473584974 L527.5837306960863 353.03720906000416 L527.822825898137 349.22892896840347 L527.0302338047885 319.0159909428097 L527.5077641084237 317.7311210761236 L527.5843208759538 314.1076261626071 L529.5725049965474 313.8933616371271 L534.9708965822124 311.14891996989024" fill="#eef3ff" stroke="none" stroke-width="0" stroke-linecap="round" stroke-linejoin="round"/>
<path d="M765.0620052038089 311.2795768773624 C765.820376990816 311.5681495597298, 766.7545662937581 311.4170985936911, 768.3926776139061 311.9797122045157 M765.350242151828 311.0483863248172 C766.1734146683729 311.31759124559005, 766.9751900557184 311.61100748833985, 768.1718624577179 311.82567648458854 M768.275893535625 312.02541447382794 C769.4954542372262 312.76234795999494, 770.2465939815064 312.96269927663224, 771.15485748578 313.4334526637529 M768.1319586060483 311.82383432354874 C769.200625652025 312.4915602327151, 770.0980361205163 312.92205496675973, 770.9977228944923 313.5481382784022 M770.79133689979 313.7594587882702 C771.6251894447025 314.4589647026555, 772.3703256001533 315.4005997802636, 772.8462032547959 316.39410767871135 M770.8686007639947 313.5486353793992 C771.3782641137874 314.70862603557737, 772.1307514037376 315.4016408318969, 772.4875838430861 316.0124370052269 M772.9064129183556 316.27233829045474 C773.0239409454023 317.0626523403073, 773.0860756719793 317.42961675305764, 773.5236616846503 319.40319038021147 M772.4672467743543 316.2660082511668 C772.6202100365543 317.01006785938097, 772.9910672017228 317.7048577425306, 773.0512943133314 319.1186781757174 M771.4977542997339 318.89780244966965 C772.3860707160225 327.46342255404215, 772.7024299468984 335.8240025850199, 774.965383628104 346.83311220249163 M774.0251542411279 319.5203734845389 C773.7320960505259 327.06148097698576, 772.6658654449832 335.7050085610617, 772.3362539894414 347.5163243219722 M772.9429623205551 347.9040823210976 C772.7757734612338 349.01900635921595, 772.9473423027463 349.82523112303903, 772.7545419705198 351.3836926249104 M773.0421780551948 348.03836980937336 C773.1019611796555 348.5472332103122, 773.0197356737251 349.20915343594345, 772.7175967536735 350.9706012114922 M772.3884508218639 350.8607229186402 C772.1494309684816 352.2035646477057, 771.4406074433892 352.8745565000905, 771.0242601984036 353.46248836128285 M772.5242255598143 351.11928574896973 C772.2077501125868 351.86437849124087, 771.4645396564733 352.6382705203902, 771.0204221355492 353.70284171260835 M770.583550216566 353.660959069803 C770.2686930182899 354.5041373861431, 769.3712611710465 354.4094896706058, 768.3741873849726 355.160182844176 M770.7369124614407 353.6813077412637 C770.2221936556595 354.0903682651248, 769.3179040478699 354.9054827770233, 768.2477200434932 355.4868216595195 M768.1682863000308 355.50820878857195 C766.9193833178551 355.8497765029018, 765.9038919311612 355.6968306867756, 765.1724917415233 356.19890955061027 M768.1092033566381 355.2833466134214 C767.4388820628685 355.65671554832846, 766.9189147548731 355.8086940691693, 765.2813961398658 355.9851965102096 M764.0920344704473 355.6891307966265 C708.0973279172933 355.8169967857099, 648.1669611016682 354.3237044621144, 534.4252175448655 357.1492427621169 M765.3481624204993 355.4797691174209 C681.7338268492889 355.23072950122673, 597.0742833461115 355.94806903310047, 533.8332270973605 355.42334004586075 M534.2760624685735 356.1364179715507 C532.8607328051082 355.5845428495297, 531.5308465868462 355.4935037658118, 531.2653327659393 355.07317580131456 M534.3390018301261 356.02370052910516 C533.2158948278225 355.84786507406767, 532.4280602198859 355.8330133873726, 531.1198098813562 355.2410786651774 M531.013774187111 355.29102075062735 C530.0875685307586 354.5326113289222, 529.1498024452978 354.27365968589123, 528.2656296725673 353.5474136203414 M531.2215895425351 355.248506033128 C530.5425771632375 354.8649080797335, 529.9057070279472 354.43925685010214, 528.6905898484683 353.80185137781933 M528.7645128565822 353.9061719139218 C527.7704417629601 352.8356468219226, 527.2819618052322 351.95033867571016, 526.630878185903 350.96635261199873 M528.6411376567798 353.71103599159085 C528.0633900380186 352.82884112744136, 527.5300443045467 352.16337179270425, 526.9605183421035 351.00705938218505 M526.7633986774492 350.8045194542559 C526.9522301086508 350.02621475301515, 526.7713216067381 349.6780718042269, 526.0146481777587 347.8492140513154 M526.9091869890888 350.99447987086603 C526.6463707030396 350.02831292065855, 526.3691394680441 349.0216722712888, 526.201405559583 348.0031562470481 M525.1357581795194 346.18308357736095 C526.4445836715616 342.2567110299133, 524.9293829582848 333.03051691493016, 525.910074862931 318.6237085386179 M525.1925946287346 347.13532364373094 C527.1118395163476 341.0816074675787, 526.4974316685259 334.8068525207508, 526.1162915564609 318.90972191845066 M525.9630352494386 319.2102860951938 C526.6436957780847 318.4331881295541, 526.3147767830843 317.5946421182859, 527.0328718318635 316.46462845667406 M526.093397342664 319.08546123206895 C526.2888158528542 318.61131112330077, 526.3670377113322 318.0004415782777, 526.6646877142477 316.1872420502143 M527.0830067901892 316.4103463405846 C527.4549128069159 315.6976783910493, 527.8931475900677 314.98214526937517, 528.7209387581795 313.2823295944626 M526.9635567659676 316.24685459088323 C527.0634184949517 315.543224350173, 527.438647130499 314.9662989920905, 528.6620238056597 313.6282647966433 M528.2955671337273 313.81521850317915 C529.6804349785842 312.8495503651133, 530.5001302595392 312.14404086558244, 530.9142191046631 311.58158973794184 M528.4016116873336 313.53742315466775 C529.5143662810685 312.84009874507444, 530.3811587718603 312.17607777579985, 531.0540567827244 311.96679355020615 M530.9936354723435 311.704711453457 C532.0187770444343 311.3274553007827, 533.0708309829458 311.58668699763246, 534.0823480452887 311.3046619482664 M531.1582857300231 311.8853327115777 C532.0693846987899 311.49178178621577, 533.3518787014553 311.48642789546636, 534.1574533364212 311.12241140987044 M534.813077153906 311.82050355269376 C594.3360751106652 310.5654333656281, 656.1224516060618 311.7773671127777, 764.2222892441725 309.9456916883882 M535.0326022064918 310.74726964326754 C612.4238190594923 310.9316976038353, 692.3637439121982 311.98737005433185, 765.5579769315092 311.16827687984147" fill="none" stroke="#4a5fc1" stroke-width="2" stroke-linecap="round" stroke-linejoin="round"/>
<path d="M1046.5369089851156 310.4336205145344 L1049.05732454961 313.72658840030476 L1053.8168361806795 313.3309460884406 L1054.4011486241216 317.77245669955556 L1053.6530538091436 317.46042117085307 L1053.6903382489456 348.4176148613915 L1052.37801048845 352.19444461284036 L1053.6970511042998 354.69923265925803 L1050.0096852571314 355.51237368784797 L1044.3789752909913 358.01627144422383 L816.1388841280714 357.5757461329922 L813.0801182079518 357.1727618654813 L807.7198435778243 354.9376766597406 L806.2875288317356 349.77701499281284 L805.895008505322 349.2555604001507 L808.4560756752267 318.7289188703522 L807.1517545113717 317.49186178440397 L809.3990502769573 311.8105420059039 L812.3231767761911 311.07083682030486 L813.77546375487 312.7109113296494" fill="#eef3ff" stroke="none" stroke-width="0" stroke-linecap="round" stroke-linejoin="round"/>
<path d="M1045.9747382565586 311.109782587068 C1047.1966124908672 311.40008835344605, 1047.435921255478 311.43039561264794, 1049.034874857764 311.71625478551493 M1046.1800656475052 311.25562352268355 C1047.2508701357328 311.31467779273027, 1048.0601555949745 311.527740967824, 1049.3406289867976 311.78516897066356 M1049.2999705403297 312.0664762886177 C1049.9819755303167 312.33654993937733, 1050.3727892170486 312.4054248881893, 1052.1549829684823 313.6187381079395 M1049.444616670349 311.85672846231654 C1049.8540018814754 312.2773391512116, 1050.5775805404471 312.62503656086653, 1052.0005243213561 313.4419866545455 M1051.7361139392465 313.3967293565946 C1052.5773706771115 314.7959163160755, 1053.5604265657732 315.6891569516752, 1053.9194024375465 316.00022817670003 M1051.9778717848583 313.6889570415728 C1052.5589978940568 314.5383673199606, 1053.0867943566857 315.45213123208794, 1053.5775791750023 316.1831701532173 M1053.5605715499512 315.8984607447605 C1054.0486090819545 317.4111388174484, 1053.8797035072757 318.32382889023006, 1054.3928917385447 318.8777911037459 M1053.7668405239524 316.26571704988356 C1053.7249976210592 316.9541752740584, 1053.8289681267138 317.49763291693216, 1054.3873969283127 319.1167165941592 M1052.3993363341317 321.264184869267 C1053.9038063217504 326.9108099344745, 1053.4834964264735 337.4915546057001, 1054.2147066971286 346.80697710011157 M1053.6113554750568 318.54013647241516 C1054.65471121893 330.3449328248017, 1053.798350768543 342.8409686295502, 1055.1345440213568 347.974454916548 M1054.4158540108087 348.2887510270672 C1053.7993168241028 349.099481057622, 1054.1705014153429 349.50715194779605, 1053.5595624423506 351.27352382733875 M1054.2051548208697 348.09242805337027 C1054.0784505513213 348.65459992871985, 1054.0200526143933 349.5960053424094, 1053.6206471860658 351.11277404058313 M1053.5943327094017 350.92466731051536 C1053.1160553526972 352.05396419839695, 1052.1850293244258 352.96063517705846, 1051.970900624249 353.8988097601359 M1053.6040259697527 351.12630333010986 C1053.3446266158433 351.6305732758459, 1053.1265645623646 351.9869157851554, 1052.0024290449182 353.7281187446283 M1052.2660728902235 353.48007294734066 C1051.2167929644258 353.8423797978254, 1050.658100807286 354.74153456570974, 1049.6192999104153 355.176690114344 M1051.9080583101534 353.77982889149405 C1051.2258550817173 354.0475860532409, 1050.744181071138 354.40752117538824, 1049.293858778648 355.27651582151924 M1049.0394256390325 355.37542345847703 C1048.9198652059854 355.3654537866356, 1048.3073654347552 355.93080159728913, 1046.1909892436906 356.32373548162633 M1049.2119182647118 355.2339778385819 C1048.4551885443632 355.3695680283994, 1047.852342251034 355.7733587606755, 1046.4200665109393 356.0965136742269 M1045.7959849778908 357.5535895255595 C954.4893981201516 358.21474323150403, 864.9732691968816 356.8805224944398, 816.2823484545044 356.65963442261386 M1046.8840182795432 355.9102778300403 C979.1150007226431 354.5662703374746, 912.5726525719203 354.0494686284833, 816.0347836805392 356.33794811374764 M815.0908714501812 355.90939410359607 C814.1026247144056 355.78834352141536, 813.1579389130985 355.7976464084933, 811.9179827860678 355.29350410151557 M815.4335588099473 356.1405697531294 C814.5185208002086 355.72415765727, 813.6611683302507 355.50977148673553, 812.2655453438165 355.5296115434507 M812.39857563842 355.06734944268044 C811.2103085934299 354.6676608655931, 810.3985632342587 354.43807527653877, 809.6649411456519 353.65928469420777 M812.3471631308616 355.3981315921664 C811.4672733052234 354.75244279378546, 810.8611248502002 354.4808863672938, 809.5702092243447 353.64700152613614 M809.4913358017415 353.5122423521249 C809.0564140388448 352.97181101490827, 808.9736446233493 352.276749984661, 807.8317120446588 351.204194960662 M809.5282274569064 353.6341200346547 C808.9146518190387 352.60880499513104, 808.4626030383516 351.83108257722347, 807.8454146298694 350.91092060920295 M808.0859053408207 350.99911491481083 C808.0228588539684 350.1707197490115, 807.7238749055776 349.79858752335423, 807.6192140512647 347.8611178333654 M807.7674524867516 351.1735519242225 C807.6436245566813 350.3620549171317, 807.6150886554705 349.643681778074, 807.3132158667352 348.1382152143112 M808.9992442449554 346.21894824597985 C808.0504059409341 338.57476471815255, 808.942283621951 326.2939610502496, 805.2437554618343 320.8198982069269 M806.4777353857644 348.5648062328808 C806.6170727924783 340.95498032731933, 806.5521496818741 335.7599473409168, 806.4008218889124 319.87339969379826 M807.5042598852485 318.9455449772377 C807.4786272283118 318.3150401065879, 807.7885117400745 317.22458147962743, 807.707274826352 315.9507004802032 M807.3852625451057 319.32970322418385 C807.3695839802988 318.26686041721234, 807.7411544083295 317.2082373512484, 808.0296679197239 316.2072968307466 M808.2087972599423 315.8854960514734 C808.5817325748815 315.9050835417015, 808.604946571611 315.1347127504644, 809.4421690826958 313.6499470290477 M807.7907930547108 316.112687449995 C808.2298678058476 315.6028074785778, 808.7453325584504 314.89953634445857, 809.6200750710304 313.5987925888416 M809.9573194992909 313.2956143135491 C810.1516818612648 313.40816120433044, 810.9153534339016 313.05038897713274, 812.1985875860523 312.11728360114495 M809.6905754246006 313.67503310511563 C810.2730880114577 313.24590260294696, 810.8366596916477 312.8215056794556, 812.2202423318189 311.8854627499598 M812.257663173251 311.65930319839106 C813.0174895048385 311.9361354225258, 814.0194077215025 311.3635850263386, 815.6035510720421 311.4444659820311 M812.2754868460659 311.6774935560833 C813.448191974551 311.6373261016996, 814.6607593662703 311.36065789715616, 815.2820220954275 311.2751785159314 M813.9370241384971 311.0131324367953 C896.0645884814704 310.65390363759377, 976.5117231261102 310.9064312790406, 1045.4142280144458 312.1446387546953 M816.1463887710237 311.76262960425373 C898.2973481786881 309.9582833819345, 979.9675855854156 309.825275736195, 1046.2404216810412 310.53383162256023" fill="none" stroke="#4a5fc1" stroke-width="2" stroke-linecap="round" stroke-linejoin="round"/>
<path d="M686.155455881823 468.210871470999 L691.6382440503297 466.5918076436413 L694.5149312753717 468.37926196413855 L693.1567844365347 473.3687576849403 L696.7979193155654 476.5632816563361 L693.5688329969533 525.33759593172 L694.2842563156594 525.4867698283476 L691.4275288571159 530.0908388371133 L688.7314965094982 532.9633366833064 L688.9137290631422 534.2156069318763 L366.5622086052783 532.5715853880159 L363.93679745927625 530.4369025448891 L360.35457927486664 529.7645085836315 L359.59132696738516 527.1168209256214 L358.56719111250715 525.682191831898 L360.28191754566507 474.0418467978947 L361.39574491431983 472.85260249268435 L361.61377967796096 469.31345784920074 L365.4738485558348 468.04831200348264 L367.1800309275277 465.67290268940855" fill="#eef3ff" stroke="none" stroke-width="0" stroke-linecap="round" stroke-linejoin="round"/>
<path d="M687.5429747912827 466.53998829677363 C687.9173445089442 466.8834598004723, 688.7727796991721 467.0951252849148, 690.3325755835963 467.7083008484884 M687.3376408841698 466.7351089795628 C688.3180950122627 466.8603316865606, 689.4626422843878 467.3207935349854, 690.5093955158773 467.3446614567386 M690.3240475450342 467.70753810340756 C690.958439923744 467.81398582279775, 691.5080049110417 468.0982208059041, 693.1551084511848 469.4040235521262 M690.4295229936624 467.48962260108436 C691.3250729522493 468.0099544718277, 692.0661454188288 468.2939392182253, 693.00332574822 469.26358677167593 M693.3363944606772 469.2895034068933 C693.529551909521 470.07736444752123, 694.0950240494196 470.92221064111266, 694.9926016202976 471.86185215666285 M693.087142805722 469.10152696275935 C693.7833341724082 469.9389743465659, 694.0864398077155 470.74573563351385, 694.6675745069188 471.62615156022065 M694.8702336635214 471.7800866810405 C694.951484470525 472.7371012119749, 695.0852493285824 472.9277199710296, 695.2621217924392 474.60789530925456 M694.7386825325636 471.86542584860035 C694.9515779535462 473.11057618052, 695.2382062886567 474.11499507490214, 695.3957478023069 474.71475501260096 M693.3009183685297 475.0305672888644 C694.8106638719154 493.1892131969519, 693.6536848504853 508.8211383904703, 693.4640297661537 523.1808419977315 M695.297556708986 475.2598994602915 C696.0281743061505 490.12841838306747, 695.3816840109192 507.3769961189385, 695.8328340532724 524.8325855111237 M695.2332422190883 524.4179162510626 C695.4080035742743 525.5265151750074, 695.2015076852863 526.8034291652907, 695.0200863961562 527.563355029767 M695.3681315865449 524.5464862973671 C695.3312590106644 525.1721972379579, 694.9689369017518 526.0653360987187, 694.8514493594456 527.3271951286869 M694.8002145969399 527.3886117023904 C694.0390772388319 528.3043637490881, 693.5413521893557 529.4467138540265, 692.9175410500944 530.0796276770149 M694.6838263796916 527.5333209112499 C694.0910642188986 528.2867111607873, 693.7235624249487 529.0723332493582, 692.9844359542875 530.1533957766483 M693.293092081907 530.3546903068525 C692.1940271683399 530.1925231934002, 691.9740747013038 530.7744734807579, 690.2089089538839 531.593197384512 M693.0792041588663 529.9505983007373 C692.0673251484264 530.7952427415581, 691.1614376359552 531.374586617061, 690.3399975138027 531.7939617245061 M690.5660684600086 531.6426381283821 C689.6423195295267 532.0069946470157, 688.8205178819763 532.1014218684825, 687.2094867458582 532.1930579306681 M690.3146331727853 531.9123608047296 C689.4817256166884 531.8616049027673, 688.7960003380255 532.1894561054916, 687.5587368820128 532.280079097257 M687.4823416662387 532.2806715447662 C581.1537614010595 530.35462205703, 475.1472042057452 532.3219832586609, 368.23324094291354 532.5400926902042 M686.7725118591395 532.6807904685746 C619.0433230634251 533.6243383446595, 549.7933207686755 533.6494636325903, 366.8452376776581 531.9642298166217 M366.9611839137633 532.0823702356414 C365.74451662370296 532.392144193301, 364.52952775737685 531.8462855692005, 363.6261362881705 531.9138324017166 M366.92811578976864 532.3296872361665 C366.22114677259526 532.3796346347692, 365.29427644061565 531.9657139803953, 363.81128080627695 531.8903926807369 M363.5278736077547 531.8991816167078 C362.73304865610146 531.202710402264, 362.0473240232196 530.3469873852121, 361.4642526187366 530.1711557680742 M363.8727367191883 531.9477571512048 C362.82110370498765 531.0835800059191, 361.9179251892444 530.63836664158, 361.1775803412083 530.21990341544 M361.27366222887514 530.1738162723021 C360.7423863147297 529.4788409501159, 360.4098239594925 528.9740270358338, 359.4325459034149 527.1865338273509 M361.14306899802017 529.9572040777185 C360.51275000217856 529.2787119631571, 360.1610828354088 528.5800620792061, 359.45806265862274 527.5425335772078 M359.1529085222182 527.5937103753657 C359.37169485130426 526.1029312532236, 358.83284270845354 525.0945162589131, 358.9682764427967 524.2730216154154 M359.35346972540185 527.4248722365918 C359.2982700566383 526.165982271664, 359.06888500024286 525.1235831511343, 358.8250261738874 524.345522440587 M359.06273031039166 522.6548129145987 C360.5876392654811 512.5142840135284, 359.6865953407918 502.60033639984204, 359.1774360607378 474.41608787523586 M358.1628761427943 524.2942888220306 C359.1714478326772 512.3969831595476, 359.6560094592903 501.3503021060582, 359.18535222136416 474.33707746914587 M358.7899810390844 474.93630734125594 C358.7649913318488 473.7968920836217, 359.05817586840044 472.4545208409689, 359.43718130281474 471.6922759857065 M358.7493760065604 474.8461934753117 C359.0563111007486 474.1449337937387, 358.94393386837635 473.2508506986179, 359.46689638421316 471.8273516112789 M359.73458772969576 471.61614924433644 C359.8434877610741 470.53790785226516, 360.4540208554751 469.849125515325, 361.21890288918644 468.9620609816586 M359.3457810844413 471.57852030910675 C359.752714618662 470.90550460821754, 360.4084154883204 470.0758876980616, 361.30587807738857 469.1693203810399 M361.3635683828803 469.0315136058932 C362.19750958403426 468.5208296613721, 362.7687313244927 468.1639583043881, 363.8829560674416 467.59747398237386 M361.0517874208808 469.0848913145764 C361.92175284218337 468.5771183177127, 362.37342932889874 468.3732607788722, 363.7864278809134 467.4041319497134 M363.92169087415857 467.2138949433252 C365.02849545702713 467.316086661003, 365.9370679616534 467.10096838774535, 366.8692506168218 466.52876653382157 M363.7926879621088 467.3974061415759 C364.88901691849435 467.0036860228865, 366.03165769926784 466.7834552455361, 366.8065908544339 466.7001938810052 M366.984436331514 465.98079880032344 C439.01481387019174 466.4480250942887, 512.2823570459268 468.8012170989593, 686.7459225274885 466.4545287085369 M367.5087399450754 466.63237007697126 C485.8818038309361 466.24005088790176, 604.2983074526577 466.61886024451167, 687.006866640078 467.1961733299775" fill="none" stroke="#4a5fc1" stroke-width="2" stroke-linecap="round" stroke-linejoin="round"/>
<text text-anchor="middle" font-size="16" fill="#1e1e1e"><tspan x="341.8" y="27.2" font-weight="700">Shared real set</tspan><tspan x="341.8" y="48.0">bitmind/bm-real, 250 images</tspan></text>
<text text-anchor="middle" font-size="16" fill="#1e1e1e"><tspan x="681.1" y="27.2" font-weight="700">Fakes from ONE training generator</tspan><tspan x="681.1" y="48.0">(midjourney OR biggan), 250 images</tspan></text>
<text text-anchor="middle" font-size="16" fill="#1e1e1e"><tspan x="527.2" y="182.8" font-weight="700">Linear probe on frozen ViT</tspan><tspan x="527.2" y="203.6">trained on this generator only</tspan></text>
<text text-anchor="middle" font-size="16" fill="#1e1e1e"><tspan x="105.6" y="338.4" font-weight="700">Test: same generator</tspan><tspan x="105.6" y="359.2">(AUC = baseline)</tspan></text>
<text text-anchor="middle" font-size="16" fill="#1e1e1e"><tspan x="368.7" y="338.4" font-weight="700">Test: unseen generator A</tspan></text>
<text text-anchor="middle" font-size="16" fill="#1e1e1e"><tspan x="649.8" y="338.4" font-weight="700">Test: unseen generator B</tspan></text>
<text text-anchor="middle" font-size="16" fill="#1e1e1e"><tspan x="930.8" y="338.4" font-weight="700">Test: unseen generator C</tspan></text>
<text text-anchor="middle" font-size="16" fill="#1e1e1e"><tspan x="527.2" y="494.0" font-weight="700">Cross-generator drop table</tspan><tspan x="527.2" y="514.8">same-gen AUC minus mean unseen AUC</tspan></text>
</svg>
