<svg xmlns="http://www.w3.org/2000/svg" viewBox="-24.0 -24.0 1102.3 580.4" width="1102" height="580" font-family="'Comic Sans MS', 'Comic Sans', cursive">
<rect x="-24.0" y="-24.0" width="1102.3" height="580.4" fill="#ffffff"/>
<defs><marker id="arrowhead" markerWidth="10" markerHeight="8" refX="9" refY="4" orient="auto"><polygon points="0 0, 10 4, 0 8" fill="#1e1e1e"/></marker></defs>
<polyline points="341.8,65.6 341.8,110.6 527.2,110.6 527.2,155.6" fill="none" stroke="#1e1e1e" stroke-width="2" marker-end="url(#arrowhead)"/>
<polyline points="681.1,65.6 681.1,110.6 527.2,110.6 527.2,155.6" fill="none" stroke="#1e1e1e" stroke-width="2" marker-end="url(#arrowhead)"/>
<polyline points="527.2,221.2 527.2,266.2 105.6,266.2 105.6,311.2" fill="none" stroke="#1e1e1e" stroke-width="2" marker-end="url(#arrowhead)"/>
<polyline points="527.2,221.2 527.2,266.2 368.7,266.2 368.7,311.2" fill="none" stroke="#1e1e1e" stroke-width="2" marker-end="url(#arrowhead)"/>
<polyline points="527.2,221.2 527.2,266.2 649.8,266.2 649.8,311.2" fill="none" stroke="#1e1e1e" stroke-width="2" marker-end="url(#arrowhead)"/>
<polyline points="527.2,221.2 527.2,266.2 930.8,266.2 930.8,311.2" fill="none" stroke="#1e1e1e" stroke-width="2" marker-end="url(#arrowhead)"/>
<polyline points="105.6,376.8 105.6,421.8 527.2,421.8 527.2,466.8" fill="none" stroke="#1e1e1e" stroke-width="2" marker-end="url(#arrowhead)"/>
<polyline points="368.7,356.0 368.7,411.4 527.2,411.4 527.2,466.8" fill="none" stroke="#1e1e1e" stroke-width="2" marker-end="url(#arrowhead)"/>
<polyline points="649.8,356.0 649.8,411.4 527.2,411.4 527.2,466.8" fill="none" stroke="#1e1e1e" stroke-width="2" marker-end="url(#arrowhead)"/>
<polyline points="930.8,356.0 930.8,411.4 527.2,411.4 527.2,466.8" fill="none" stroke="#1e1e1e" stroke-width="2" marker-end="url(#arrowhead)"/>
<rect x="204.9" y="0.0" width="273.9" height="65.6" rx="8" ry="8" fill="#eef3ff" stroke="#4a5fc1" stroke-width="2"/>
<text text-anchor="middle" font-size="16" fill="#1e1e1e"><tspan x="341.8" y="27.2" font-weight="700">Shared real set</tspan><tspan x="341.8" y="48.0">bitmind/bm-real, 250 images</tspan></text>
<rect x="512.8" y="0.0" width="336.6" height="65.6" rx="8" ry="8" fill="#eef3ff" stroke="#4a5fc1" stroke-width="2"/>
<text text-anchor="middle" font-size="16" fill="#1e1e1e"><tspan x="681.1" y="27.2" font-weight="700">Fakes from ONE training generator</tspan><tspan x="681.1" y="48.0">(midjourney OR biggan), 250 images</tspan></text>
<rect x="376.8" y="155.6" width="300.8" height="65.6" rx="8" ry="8" fill="#eef3ff" stroke="#4a5fc1" stroke-width="2"/>
<text text-anchor="middle" font-size="16" fill="#1e1e1e"><tspan x="527.2" y="182.8" font-weight="700">Linear probe on frozen ViT</tspan><tspan x="527.2" y="203.6">trained on this generator only</tspan></text>
<rect x="0.0" y="311.2" width="211.2" height="65.6" rx="8" ry="8" fill="#eef3ff" stroke="#4a5fc1" stroke-width="2"/>
<text text-anchor="middle" font-size="16" fill="#1e1e1e"><tspan x="105.6" y="338.4" font-weight="700">Test: same generator</tspan><tspan x="105.6" y="359.2">(AUC = baseline)</tspan></text>
<rect x="245.2" y="311.2" width="247.0" height="44.8" rx="8" ry="8" fill="#eef3ff" stroke="#4a5fc1" stroke-width="2"/>
<text text-anchor="middle" font-size="16" fill="#1e1e1e"><tspan x="368.7" y="338.4" font-weight="700">Test: unseen generator A</tspan></text>
<rect x="526.2" y="311.2" width="247.0" height="44.8" rx="8" ry="8" fill="#eef3ff" stroke="#4a5fc1" stroke-width="2"/>
<text text-anchor="middle" font-size="16" fill="#1e1e1e"><tspan x="649.8" y="338.4" font-weight="700">Test: unseen generator B</tspan></text>
<rect x="807.3" y="311.2" width="247.0" height="44.8" rx="8" ry="8" fill="#eef3ff" stroke="#4a5fc1" stroke-width="2"/>
<text text-anchor="middle" font-size="16" fill="#1e1e1e"><tspan x="930.8" y="338.4" font-weight="700">Test: unseen generator C</tspan></text>
<rect x="358.8" y="466.8" width="336.6" height="65.6" rx="8" ry="8" fill="#eef3ff" stroke="#4a5fc1" stroke-width="2"/>
<text text-anchor="middle" font-size="16" fill="#1e1e1e"><tspan x="527.2" y="494.0" font-weight="700">Cross-generator drop table</tspan><tspan x="527.2" y="514.8">same-gen AUC minus mean unseen AUC</tspan></text>
</svg>